<?xml version="1.0" encoding="UTF-8" standalone="no"?>
<svg width="31px" height="30px" viewBox="0 0 31 30" version="1.1" xmlns="http://www.w3.org/2000/svg" xmlns:xlink="http://www.w3.org/1999/xlink">
    <!-- Generator: Sketch 3.6.1 (26313) - http://www.bohemiancoding.com/sketch -->
    <title>Fill 50</title>
    <desc>Created with Sketch.</desc>
    <defs></defs>
    <g id="Page-1" stroke="none" stroke-width="1" fill="none" fill-rule="evenodd">
        <g id="GitHub-Mark" transform="translate(-136.000000, -331.000000)" fill="#FFFFFF">
            <path d="M151.318619,331.455 C143.036597,331.455 136.32,338.170676 136.32,346.45546 C136.32,353.082736 140.617554,358.704455 146.578142,360.687941 C147.328625,360.826067 147.602114,360.362885 147.602114,359.965083 C147.602114,359.608719 147.589223,358.66578 147.581856,357.41436 C143.409536,358.320465 142.529215,355.403249 142.529215,355.403249 C141.846873,353.670231 140.863418,353.208891 140.863418,353.208891 C139.501497,352.278844 140.966551,352.29726 140.966551,352.29726 C142.472123,352.403157 143.264044,353.843348 143.264044,353.843348 C144.602022,356.135316 146.775201,355.473233 147.629739,355.089243 C147.766024,354.120521 148.153697,353.459359 148.581886,353.084577 C145.251213,352.706113 141.749264,351.41878 141.749264,345.670906 C141.749264,344.033655 142.333997,342.693835 143.293511,341.645921 C143.13881,341.266535 142.624061,339.740706 143.440845,337.676185 C143.440845,337.676185 144.699631,337.272858 147.565281,339.213986 C148.76145,338.880642 150.045099,338.714891 151.32046,338.708445 C152.594901,338.714891 153.877629,338.880642 155.07564,339.213986 C157.939448,337.272858 159.196393,337.676185 159.196393,337.676185 C160.015018,339.740706 159.500269,341.266535 159.346489,341.645921 C160.307845,342.693835 160.887973,344.033655 160.887973,345.670906 C160.887973,351.433514 157.380499,352.701508 154.039697,353.072606 C154.577466,353.535788 155.057223,354.451102 155.057223,355.849856 C155.057223,357.855442 155.038807,359.473355 155.038807,359.965083 C155.038807,360.366569 155.309533,360.833434 156.070146,360.687021 C162.02613,358.69893 166.32,353.080894 166.32,346.45546 C166.32,338.170676 159.603403,331.455 151.318619,331.455" id="Fill-50"></path>
        </g>
    </g>
</svg>