<?xml version="1.0" encoding="UTF-8" standalone="no"?>
<svg width="32px" height="26px" viewBox="0 0 32 26" version="1.1" xmlns="http://www.w3.org/2000/svg" xmlns:xlink="http://www.w3.org/1999/xlink">
    <!-- Generator: Sketch 3.6.1 (26313) - http://www.bohemiancoding.com/sketch -->
    <title>Shape</title>
    <desc>Created with Sketch.</desc>
    <defs></defs>
    <g id="Page-1" stroke="none" stroke-width="1" fill="none" fill-rule="evenodd">
        <path d="M31.7399998,3.05339363 C30.5722822,3.57139077 29.3171222,3.92132482 28.0000684,4.07875581 C29.3444196,3.2728739 30.3770808,1.99676621 30.8631798,0.476101662 C29.604846,1.22246785 28.2112984,1.76427017 26.7279286,2.05628008 C25.5402145,0.790645335 23.8478354,-1.0658141e-14 21.974855,-1.0658141e-14 C18.3787078,-1.0658141e-14 15.4629079,2.91548165 15.4629079,6.51163069 C15.4629079,7.02201048 15.5205156,7.51905988 15.6316058,7.99563716 C10.2196084,7.72410123 5.42146543,5.13157269 2.20968957,1.19183925 C1.64916031,2.15356243 1.32795052,3.27208182 1.32795052,4.46550895 C1.32795052,6.72476502 2.47757598,8.71788171 4.2248644,9.88559748 C3.15744758,9.85179498 2.15335145,9.55883383 1.27542109,9.07114882 C1.27468082,9.0982852 1.27468082,9.12558074 1.27468082,9.15303729 C1.27468082,12.3079994 3.51933881,14.9397252 6.49830031,15.5383431 C5.95189538,15.6872036 5.37660703,15.7667121 4.78274905,15.7667121 C4.36314651,15.7667121 3.95528832,15.7257679 3.55758477,15.6499089 C4.3863169,18.2368817 6.79110231,20.119543 9.64072415,20.1719133 C7.41209667,21.9185687 4.60437216,22.9596431 1.5533585,22.9596431 C1.02774215,22.9596431 0.509428538,22.9286962 0,22.8685476 C2.88183831,24.7162959 6.30468501,25.7943467 9.98208774,25.7943467 C21.9596721,25.7943467 28.5097079,15.871932 28.5097079,7.26656734 C28.5097079,6.98424014 28.5033601,6.70349897 28.4908237,6.4240292 C29.7629636,5.50610585 30.866883,4.35933598 31.7398943,3.05339363 L31.7399998,3.05339363 Z" id="Shape" fill="#333333"></path>
    </g>
</svg>