<?xml version="1.0" encoding="UTF-8" standalone="no"?>
<svg width="32px" height="26px" viewBox="0 0 32 26" version="1.1" xmlns="http://www.w3.org/2000/svg" xmlns:xlink="http://www.w3.org/1999/xlink">
    <!-- Generator: Sketch 3.6.1 (26313) - http://www.bohemiancoding.com/sketch -->
    <title>Shape</title>
    <desc>Created with Sketch.</desc>
    <defs></defs>
    <g id="Page-1" stroke="none" stroke-width="1" fill="none" fill-rule="evenodd">
        <path d="M31.9134102,3.22680403 C30.7456926,3.74480117 29.4905326,4.09473522 28.1734788,4.25216621 C29.51783,3.44628431 30.5504912,2.17017662 31.0365902,0.649512067 C29.7782564,1.39587826 28.3847088,1.93768058 26.901339,2.22969048 C25.7136249,0.96405574 24.0212459,0.173410405 22.1482654,0.173410405 C18.5521183,0.173410405 15.6363183,3.08889206 15.6363183,6.6850411 C15.6363183,7.19542088 15.693926,7.69247028 15.8050162,8.16904757 C10.3930188,7.89751163 5.59487584,5.30498309 2.38309997,1.36524966 C1.82257072,2.32697283 1.50136093,3.44549222 1.50136093,4.63891935 C1.50136093,6.89817543 2.65098639,8.89129212 4.39827481,10.0590079 C3.33085798,10.0252054 2.32676186,9.73224423 1.44883149,9.24455922 C1.44809123,9.27169561 1.44809123,9.29899115 1.44809123,9.32644769 C1.44809123,12.4814098 3.69274921,15.1131356 6.67171072,15.7117535 C6.12530578,15.860614 5.55001743,15.9401225 4.95615945,15.9401225 C4.53655691,15.9401225 4.12869873,15.8991783 3.73099517,15.8233193 C4.55972731,18.4102921 6.96451271,20.2929534 9.81413455,20.3453237 C7.58550708,22.0919791 4.77778257,23.1330535 1.7267689,23.1330535 C1.20115255,23.1330535 0.682838943,23.1021066 0.173410405,23.041958 C3.05524872,24.8897063 6.47809541,25.9677571 10.1554981,25.9677571 C22.1330825,25.9677571 28.6831184,16.0453424 28.6831184,7.43997775 C28.6831184,7.15765055 28.6767706,6.87690937 28.6642341,6.59743961 C29.936374,5.67951625 31.0402934,4.53274638 31.9133047,3.22680403 L31.9134102,3.22680403 Z" id="Shape" fill="#FFFFFF"></path>
    </g>
</svg>